<svg width="285" height="300" viewBox="0 0 285 300" fill="none" xmlns="http://www.w3.org/2000/svg">
<g clip-path="url(#clip0_234_49)">
<path d="M163.895 233.721H159.783C159.266 233.721 158.77 233.514 158.405 233.148C158.039 232.782 157.834 232.285 157.833 231.766V197.416C157.834 196.898 158.039 196.401 158.405 196.035C158.77 195.668 159.266 195.462 159.783 195.462H163.895C164.412 195.462 164.908 195.668 165.273 196.035C165.639 196.401 165.845 196.898 165.845 197.416V231.766C165.845 232.285 165.639 232.782 165.273 233.148C164.908 233.514 164.412 233.721 163.895 233.721Z" fill="#6C63FF"/>
<path d="M155.206 233.721H151.094C150.577 233.721 150.081 233.514 149.715 233.148C149.35 232.782 149.144 232.285 149.144 231.766V197.416C149.144 196.898 149.35 196.401 149.715 196.035C150.081 195.668 150.577 195.462 151.094 195.462H155.206C155.723 195.462 156.218 195.668 156.584 196.035C156.949 196.401 157.155 196.898 157.156 197.416V231.766C157.155 232.285 156.949 232.782 156.584 233.148C156.218 233.514 155.723 233.721 155.206 233.721Z" fill="#6C63FF"/>
<path d="M46.9109 122.565C46.0784 126.059 45.0269 126.89 44.031 126.652C43.0351 126.414 42.4719 125.196 43.3043 121.702C44.1367 118.208 47.0454 114 47.0454 114C47.0454 114 47.7433 119.071 46.9109 122.565Z" fill="#CCCCCC"/>
<path d="M44.6823 183.439C43.8499 186.933 42.7984 187.764 41.8025 187.526C40.8066 187.288 40.2434 186.069 41.0758 182.576C41.9082 179.082 44.8169 174.874 44.8169 174.874C44.8169 174.874 45.5148 179.945 44.6823 183.439Z" fill="#CCCCCC"/>
<path d="M166.655 74.6422C166.655 74.6422 168.563 70.5963 165.48 69.5444C162.397 68.4925 162.619 72.7299 162.619 72.7299L166.369 74.9608" fill="#3F3D56"/>
<path d="M101.873 86.5462L95.4834 91.7383C95.4834 91.7383 191.344 124.03 202.278 130.435L201.198 121.387L192.141 110.33L174.598 99.1121L146.278 90.2818L115.415 79.1571L101.873 86.5462Z" fill="#6C63FF"/>
<path d="M150.695 99.4583L129.007 153.712C129.007 153.712 125.541 162.696 133.201 164.418C137.806 165.453 140.241 162.653 141.45 160.255C142.742 157.693 139.236 155.441 137.483 157.711C137.455 157.748 137.426 157.785 137.398 157.823C137.355 157.881 132.76 161.455 132.763 156.564C132.774 155.436 133.007 154.322 133.449 153.285L154.763 101.976L150.695 99.4583Z" fill="#3F3D56"/>
<path d="M164.454 72.3395C164.454 72.3395 158.351 71.4463 154.919 69.5022C154.919 69.5022 117.254 61.4668 95.5068 91.4432C95.5068 91.4432 197.885 115.197 202.301 130.14C202.301 130.14 208.727 102.487 174.688 76.961C174.688 76.961 166.361 74.0602 164.454 72.3395Z" fill="#3F3D56"/>
<path d="M48.3264 158.552C47.8185 160.684 47.1769 161.191 46.5692 161.045C45.9615 160.9 45.6178 160.157 46.1257 158.025C46.6337 155.893 48.4086 153.325 48.4086 153.325C48.4086 153.325 48.8344 156.42 48.3264 158.552Z" fill="#CCCCCC"/>
<path d="M32.4466 168.883C31.9386 171.015 31.297 171.523 30.6893 171.377C30.0816 171.232 29.7379 170.489 30.2459 168.357C30.7538 166.225 32.5287 163.657 32.5287 163.657C32.5287 163.657 32.9545 166.751 32.4466 168.883Z" fill="#CCCCCC"/>
<path d="M149.153 68.1137C148.321 71.6076 147.269 72.4392 146.273 72.2008C145.277 71.9624 144.714 70.7443 145.546 67.2505C146.379 63.7566 149.288 59.5485 149.288 59.5485C149.288 59.5485 149.985 64.6199 149.153 68.1137Z" fill="#CCCCCC"/>
<path d="M152.797 43.2265C152.289 45.3584 151.648 45.8658 151.04 45.7204C150.432 45.5749 150.089 44.8316 150.596 42.6997C151.104 40.5678 152.879 38 152.879 38C152.879 38 153.305 41.0946 152.797 43.2265Z" fill="#CCCCCC"/>
<path d="M136.917 53.5583C136.409 55.6902 135.768 56.1976 135.16 56.0522C134.552 55.9067 134.209 55.1634 134.717 53.0315C135.225 50.8996 136.999 48.3318 136.999 48.3318C136.999 48.3318 137.425 51.4264 136.917 53.5583Z" fill="#CCCCCC"/>
<path d="M105.136 177.575C104.304 181.069 103.253 181.9 102.257 181.662C101.261 181.423 100.697 180.205 101.53 176.712C102.362 173.218 105.271 169.01 105.271 169.01C105.271 169.01 105.969 174.081 105.136 177.575Z" fill="#CCCCCC"/>
<path d="M108.78 152.688C108.272 154.819 107.63 155.327 107.022 155.181C106.415 155.036 106.071 154.293 106.579 152.161C107.087 150.029 108.862 147.461 108.862 147.461C108.862 147.461 109.288 150.556 108.78 152.688Z" fill="#CCCCCC"/>
<path d="M92.9007 163.019C92.3927 165.151 91.7511 165.659 91.1434 165.513C90.5357 165.368 90.192 164.624 90.7 162.493C91.2079 160.361 92.9828 157.793 92.9828 157.793C92.9828 157.793 93.4086 160.887 92.9007 163.019Z" fill="#CCCCCC"/>
<path d="M88.6989 73.4193C87.8665 76.9131 86.815 77.7447 85.8191 77.5063C84.8232 77.268 84.26 76.0499 85.0924 72.556C85.9248 69.0622 88.8335 64.854 88.8335 64.854C88.8335 64.854 89.5314 69.9254 88.6989 73.4193Z" fill="#CCCCCC"/>
<path d="M86.4704 134.293C85.638 137.787 84.5865 138.619 83.5906 138.38C82.5946 138.142 82.0315 136.924 82.8639 133.43C83.6963 129.936 86.605 125.728 86.605 125.728C86.605 125.728 87.3028 130.799 86.4704 134.293Z" fill="#CCCCCC"/>
<path d="M90.1145 109.406C89.6066 111.538 88.965 112.045 88.3573 111.9C87.7496 111.754 87.4059 111.011 87.9138 108.879C88.4218 106.747 90.1966 104.179 90.1966 104.179C90.1966 104.179 90.6225 107.274 90.1145 109.406Z" fill="#CCCCCC"/>
<path d="M74.2346 119.737C73.7267 121.869 73.0851 122.377 72.4774 122.231C71.8697 122.086 71.526 121.343 72.034 119.211C72.5419 117.079 74.3168 114.511 74.3168 114.511C74.3168 114.511 74.7426 117.606 74.2346 119.737Z" fill="#CCCCCC"/>
<path d="M131.323 75.9323C130.491 79.4262 129.439 80.2578 128.443 80.0194C127.447 79.781 126.884 78.5629 127.716 75.0691C128.549 71.5753 131.458 67.3671 131.458 67.3671C131.458 67.3671 132.155 72.4385 131.323 75.9323Z" fill="#CCCCCC"/>
<path d="M129.094 136.806C128.262 140.3 127.211 141.132 126.215 140.893C125.219 140.655 124.655 139.437 125.488 135.943C126.32 132.449 129.229 128.241 129.229 128.241C129.229 128.241 129.927 133.312 129.094 136.806Z" fill="#CCCCCC"/>
<path d="M132.739 111.919C132.231 114.051 131.589 114.558 130.981 114.413C130.374 114.267 130.03 113.524 130.538 111.392C131.046 109.26 132.821 106.692 132.821 106.692C132.821 106.692 133.246 109.787 132.739 111.919Z" fill="#CCCCCC"/>
<path d="M170.883 87.6604C170.05 91.1542 168.999 91.9858 168.003 91.7474C167.007 91.509 166.444 90.2909 167.276 86.7971C168.108 83.3033 171.017 79.0951 171.017 79.0951C171.017 79.0951 171.715 84.1665 170.883 87.6604Z" fill="#CCCCCC"/>
<path d="M158.647 73.1049C158.139 75.2368 157.497 75.7443 156.889 75.5988C156.282 75.4534 155.938 74.7101 156.446 72.5781C156.954 70.4462 158.729 67.8784 158.729 67.8784C158.729 67.8784 159.155 70.973 158.647 73.1049Z" fill="#CCCCCC"/>
<path d="M190.663 71.1854C189.83 74.6792 188.779 75.5109 187.783 75.2725C186.787 75.0341 186.224 73.816 187.056 70.3221C187.889 66.8283 190.797 62.6201 190.797 62.6201C190.797 62.6201 191.495 67.6915 190.663 71.1854Z" fill="#CCCCCC"/>
<path d="M188.434 132.059C187.602 135.553 186.55 136.385 185.554 136.146C184.559 135.908 183.995 134.69 184.828 131.196C185.66 127.702 188.569 123.494 188.569 123.494C188.569 123.494 189.267 128.565 188.434 132.059Z" fill="#CCCCCC"/>
<path d="M192.077 107.172C191.569 109.304 190.928 109.811 190.32 109.666C189.712 109.52 189.369 108.777 189.877 106.645C190.385 104.513 192.16 101.945 192.16 101.945C192.16 101.945 192.585 105.04 192.077 107.172Z" fill="#CCCCCC"/>
<path d="M230.222 82.9133C229.39 86.4072 228.338 87.2387 227.343 87.0004C226.347 86.762 225.783 85.5439 226.616 82.05C227.448 78.5562 230.357 74.348 230.357 74.348C230.357 74.348 231.055 79.4194 230.222 82.9133Z" fill="#CCCCCC"/>
<path d="M217.987 68.3578C217.479 70.4898 216.837 70.9972 216.229 70.8517C215.622 70.7063 215.278 69.963 215.786 67.8311C216.294 65.6991 218.069 63.1313 218.069 63.1313C218.069 63.1313 218.495 66.2259 217.987 68.3578Z" fill="#CCCCCC"/>
<path d="M213.786 111.116C212.953 114.61 211.902 115.442 210.906 115.203C209.91 114.965 209.347 113.747 210.179 110.253C211.012 106.759 213.92 102.551 213.92 102.551C213.92 102.551 214.618 107.622 213.786 111.116Z" fill="#CCCCCC"/>
<path d="M211.557 171.99C210.725 175.484 209.673 176.316 208.677 176.077C207.682 175.839 207.118 174.621 207.951 171.127C208.783 167.633 211.692 163.425 211.692 163.425C211.692 163.425 212.39 168.496 211.557 171.99Z" fill="#CCCCCC"/>
<path d="M215.2 147.103C214.693 149.235 214.051 149.742 213.443 149.597C212.835 149.451 212.492 148.708 213 146.576C213.508 144.444 215.283 141.876 215.283 141.876C215.283 141.876 215.708 144.971 215.2 147.103Z" fill="#CCCCCC"/>
<path d="M253.345 122.844C252.513 126.338 251.461 127.17 250.466 126.931C249.47 126.693 248.906 125.475 249.739 121.981C250.571 118.487 253.48 114.279 253.48 114.279C253.48 114.279 254.178 119.35 253.345 122.844Z" fill="#CCCCCC"/>
<path d="M241.11 108.289C240.602 110.421 239.96 110.928 239.352 110.783C238.745 110.637 238.401 109.894 238.909 107.762C239.417 105.63 241.192 103.062 241.192 103.062C241.192 103.062 241.618 106.157 241.11 108.289Z" fill="#CCCCCC"/>
<path d="M160.352 157.835C168.198 157.835 174.56 151.459 174.56 143.594C174.56 135.729 168.198 129.353 160.352 129.353C152.505 129.353 146.144 135.729 146.144 143.594C146.144 151.459 152.505 157.835 160.352 157.835Z" fill="#6C63FF"/>
<path d="M148.919 149.572C147.998 149.547 146.852 149.514 145.969 148.868C145.706 148.668 145.49 148.412 145.336 148.119C145.182 147.826 145.094 147.503 145.078 147.172C145.062 146.937 145.1 146.702 145.19 146.484C145.28 146.266 145.419 146.073 145.596 145.918C146.057 145.527 146.731 145.435 147.456 145.649L146.705 140.141L147.257 140.065L148.141 146.541L147.68 146.329C147.145 146.083 146.412 145.958 145.956 146.344C145.844 146.445 145.757 146.571 145.701 146.711C145.645 146.851 145.622 147.002 145.635 147.152C145.648 147.399 145.714 147.639 145.829 147.857C145.943 148.075 146.103 148.266 146.298 148.417C146.985 148.92 147.899 148.985 148.935 149.014L148.919 149.572Z" fill="#2F2E41"/>
<path d="M153.446 140.616H150.445V141.175H153.446V140.616Z" fill="#2F2E41"/>
<path d="M161.346 129.311C161.451 127.627 161.915 125.986 162.707 124.498C163.5 123.01 164.602 121.71 165.939 120.686C167.321 119.661 168.915 118.961 170.604 118.638C172.293 118.315 174.033 118.378 175.694 118.822C177.345 119.252 178.876 120.051 180.173 121.161C181.471 122.271 182.5 123.661 183.183 125.227C183.871 126.781 184.214 128.467 184.189 130.167C184.113 132.016 183.655 133.829 182.843 135.492C182.005 137.321 180.949 139.038 180.031 140.826C179.127 142.59 178.347 144.415 177.697 146.287C176.374 150.103 175.594 154.086 175.379 158.12C175.038 164.478 175.645 173.761 182.806 176.201C184.627 176.822 186.592 176.937 188.501 176.932C190.512 176.957 192.518 176.721 194.468 176.232C197.849 175.327 201.059 173.202 202.499 169.901C202.831 169.138 203.054 168.333 203.16 167.508C203.19 167.282 202.947 167.091 202.742 167.089C202.632 167.092 202.528 167.137 202.45 167.215C202.372 167.293 202.327 167.398 202.324 167.508C201.858 171.026 198.934 173.723 195.758 174.936C193.903 175.61 191.954 175.988 189.982 176.056C188.019 176.156 185.98 176.14 184.058 175.688C182.347 175.316 180.79 174.429 179.597 173.146C178.533 171.918 177.739 170.479 177.268 168.923C176.138 165.465 176.019 161.662 176.218 158.058C176.443 154.037 177.24 150.07 178.585 146.276C179.265 144.36 180.085 142.497 181.038 140.703C181.969 138.947 183.003 137.242 183.788 135.412C184.553 133.73 184.974 131.911 185.026 130.064C185.032 128.357 184.693 126.667 184.03 125.095C183.377 123.517 182.4 122.095 181.16 120.923C179.921 119.75 178.449 118.854 176.839 118.293C175.202 117.721 173.463 117.499 171.736 117.641C170.008 117.783 168.328 118.286 166.806 119.116C165.357 119.951 164.088 121.065 163.072 122.394C162.055 123.724 161.312 125.241 160.884 126.86C160.676 127.662 160.551 128.483 160.51 129.311C160.483 129.85 161.319 129.848 161.346 129.311Z" fill="#2F2E41"/>
<path d="M164.124 129.605C164.352 128.051 165.129 126.631 166.313 125.603C167.572 124.545 169.185 124.009 170.825 124.102C171.362 124.129 171.361 123.291 170.825 123.264C169.043 123.183 167.293 123.762 165.909 124.89C164.525 126.019 163.603 127.617 163.318 129.382C163.238 129.91 164.043 130.137 164.124 129.605Z" fill="#2F2E41"/>
<path d="M163.989 130.498L160.021 129.184C159.67 129.068 159.379 128.817 159.213 128.487C159.047 128.156 159.019 127.773 159.135 127.421C159.251 127.069 159.501 126.778 159.831 126.612C160.161 126.445 160.543 126.417 160.894 126.533L164.862 127.846C165.213 127.962 165.504 128.213 165.67 128.544C165.836 128.875 165.864 129.258 165.748 129.61C165.632 129.961 165.382 130.252 165.052 130.419C164.722 130.585 164.34 130.614 163.989 130.498Z" fill="#2F2E41"/>
<path d="M170.42 209.827H144.291C143.811 209.827 143.351 209.635 143.011 209.295C142.672 208.955 142.481 208.493 142.48 208.012V203.891C142.481 203.41 142.672 202.948 143.011 202.608C143.351 202.268 143.811 202.076 144.291 202.076H170.42C170.9 202.076 171.36 202.268 171.7 202.608C172.039 202.948 172.23 203.41 172.231 203.891V208.012C172.23 208.493 172.039 208.955 171.7 209.295C171.36 209.635 170.9 209.827 170.42 209.827Z" fill="#CCCCCC"/>
<path d="M175.987 203.589C175.974 203.589 175.961 203.589 175.948 203.589L139.41 202.818C139.142 202.812 138.877 202.746 138.637 202.626C138.397 202.505 138.186 202.332 138.021 202.12C137.855 201.907 137.739 201.66 137.681 201.397C137.623 201.134 137.623 200.862 137.683 200.599L146.579 161.561C146.669 161.16 146.893 160.801 147.214 160.544C147.535 160.288 147.934 160.149 148.344 160.151H154.3C158.494 160.165 162.557 161.619 165.812 164.27C169.067 166.921 171.318 170.609 172.191 174.721L177.758 201.402C177.814 201.666 177.809 201.94 177.746 202.202C177.682 202.464 177.561 202.709 177.392 202.918C177.222 203.128 177.008 203.297 176.765 203.413C176.522 203.529 176.256 203.589 175.987 203.589Z" fill="#2F2E41"/>
<path d="M152.513 181.504C152.037 181.505 151.579 181.317 151.241 180.981L126.857 156.844C126.688 156.677 126.553 156.477 126.461 156.258C126.368 156.038 126.32 155.802 126.318 155.564C126.317 155.326 126.362 155.089 126.452 154.868C126.542 154.648 126.674 154.447 126.841 154.277L129.73 151.345C130.068 151.002 130.527 150.808 131.007 150.805C131.487 150.802 131.949 150.99 132.291 151.329L156.675 175.466C157.016 175.804 157.209 176.265 157.212 176.746C157.215 177.227 157.028 177.69 156.691 178.033L153.801 180.965C153.633 181.136 153.432 181.272 153.211 181.364C152.99 181.457 152.753 181.504 152.513 181.504Z" fill="#6C63FF"/>
<path d="M151.386 182.235L140.664 171.749C140.329 171.421 140.133 170.978 140.116 170.51C140.1 170.042 140.263 169.585 140.573 169.235L145.086 164.137C145.265 163.935 145.485 163.776 145.732 163.67C145.979 163.564 146.247 163.515 146.515 163.525C146.783 163.535 147.046 163.605 147.285 163.729C147.523 163.853 147.731 164.029 147.893 164.243L159.366 175.963C159.687 176.322 159.854 176.795 159.828 177.277C159.803 177.759 159.588 178.212 159.231 178.536L153.955 182.371C153.596 182.694 153.124 182.861 152.642 182.836C152.16 182.81 151.708 182.594 151.386 182.235Z" fill="#2F2E41"/>
<path d="M254.668 234H48.9879C48.9443 234 48.9011 233.992 48.8607 233.975C48.8204 233.958 48.7837 233.934 48.7528 233.903C48.7219 233.872 48.6973 233.835 48.6806 233.795C48.6639 233.755 48.6553 233.711 48.6553 233.668C48.6553 233.624 48.6639 233.581 48.6806 233.54C48.6973 233.5 48.7219 233.463 48.7528 233.432C48.7837 233.401 48.8204 233.377 48.8607 233.36C48.9011 233.343 48.9443 233.335 48.9879 233.335H254.668C254.712 233.335 254.755 233.343 254.796 233.36C254.836 233.377 254.873 233.401 254.903 233.432C254.934 233.463 254.959 233.5 254.976 233.54C254.992 233.581 255.001 233.624 255.001 233.668C255.001 233.711 254.992 233.755 254.976 233.795C254.959 233.835 254.934 233.872 254.903 233.903C254.873 233.934 254.836 233.958 254.796 233.975C254.755 233.992 254.712 234 254.668 234Z" fill="#3F3D56"/>
</g>
<path d="M66.7163 266V255.5H68.1363V266H66.7163ZM67.4363 253.18C67.143 253.18 66.8963 253.08 66.6963 252.88C66.4963 252.68 66.3963 252.44 66.3963 252.16C66.3963 251.88 66.4963 251.647 66.6963 251.46C66.8963 251.26 67.143 251.16 67.4363 251.16C67.7297 251.16 67.9763 251.253 68.1763 251.44C68.3763 251.627 68.4763 251.86 68.4763 252.14C68.4763 252.433 68.3763 252.68 68.1763 252.88C67.9897 253.08 67.743 253.18 67.4363 253.18ZM85.2074 255.4C86.0608 255.4 86.8008 255.567 87.4274 255.9C88.0674 256.22 88.5608 256.713 88.9074 257.38C89.2674 258.047 89.4474 258.887 89.4474 259.9V266H88.0274V260.04C88.0274 258.933 87.7608 258.1 87.2274 257.54C86.7074 256.967 85.9674 256.68 85.0074 256.68C84.2874 256.68 83.6608 256.833 83.1274 257.14C82.6074 257.433 82.2008 257.867 81.9074 258.44C81.6274 259 81.4874 259.68 81.4874 260.48V266H80.0674V260.04C80.0674 258.933 79.8008 258.1 79.2674 257.54C78.7341 256.967 77.9874 256.68 77.0274 256.68C76.3208 256.68 75.7008 256.833 75.1674 257.14C74.6341 257.433 74.2208 257.867 73.9274 258.44C73.6474 259 73.5074 259.68 73.5074 260.48V266H72.0874V255.5H73.4474V258.34L73.2274 257.84C73.5474 257.08 74.0608 256.487 74.7674 256.06C75.4874 255.62 76.3341 255.4 77.3074 255.4C78.3341 255.4 79.2074 255.66 79.9274 256.18C80.6474 256.687 81.1141 257.453 81.3274 258.48L80.7674 258.26C81.0741 257.407 81.6141 256.72 82.3874 256.2C83.1741 255.667 84.1141 255.4 85.2074 255.4ZM99.8784 266V263.68L99.8184 263.3V259.42C99.8184 258.527 99.565 257.84 99.0584 257.36C98.565 256.88 97.825 256.64 96.8384 256.64C96.1584 256.64 95.5117 256.753 94.8984 256.98C94.285 257.207 93.765 257.507 93.3384 257.88L92.6984 256.82C93.2317 256.367 93.8717 256.02 94.6184 255.78C95.365 255.527 96.1517 255.4 96.9784 255.4C98.3384 255.4 99.385 255.74 100.118 256.42C100.865 257.087 101.238 258.107 101.238 259.48V266H99.8784ZM96.2584 266.1C95.4717 266.1 94.785 265.973 94.1984 265.72C93.625 265.453 93.185 265.093 92.8784 264.64C92.5717 264.173 92.4184 263.64 92.4184 263.04C92.4184 262.493 92.545 262 92.7984 261.56C93.065 261.107 93.4917 260.747 94.0784 260.48C94.6784 260.2 95.4784 260.06 96.4784 260.06H100.098V261.12H96.5184C95.505 261.12 94.7984 261.3 94.3984 261.66C94.0117 262.02 93.8184 262.467 93.8184 263C93.8184 263.6 94.0517 264.08 94.5184 264.44C94.985 264.8 95.6384 264.98 96.4784 264.98C97.2784 264.98 97.965 264.8 98.5384 264.44C99.125 264.067 99.5517 263.533 99.8184 262.84L100.138 263.82C99.8717 264.513 99.405 265.067 98.7384 265.48C98.085 265.893 97.2584 266.1 96.2584 266.1ZM109.575 269.98C108.615 269.98 107.695 269.84 106.815 269.56C105.935 269.28 105.222 268.88 104.675 268.36L105.395 267.28C105.889 267.72 106.495 268.067 107.215 268.32C107.949 268.587 108.722 268.72 109.535 268.72C110.869 268.72 111.849 268.407 112.475 267.78C113.102 267.167 113.415 266.207 113.415 264.9V262.28L113.615 260.48L113.475 258.68V255.5H114.835V264.72C114.835 266.533 114.389 267.86 113.495 268.7C112.615 269.553 111.309 269.98 109.575 269.98ZM109.315 265.6C108.315 265.6 107.415 265.387 106.615 264.96C105.815 264.52 105.182 263.913 104.715 263.14C104.262 262.367 104.035 261.48 104.035 260.48C104.035 259.48 104.262 258.6 104.715 257.84C105.182 257.067 105.815 256.467 106.615 256.04C107.415 255.613 108.315 255.4 109.315 255.4C110.249 255.4 111.089 255.593 111.835 255.98C112.582 256.367 113.175 256.94 113.615 257.7C114.055 258.46 114.275 259.387 114.275 260.48C114.275 261.573 114.055 262.5 113.615 263.26C113.175 264.02 112.582 264.6 111.835 265C111.089 265.4 110.249 265.6 109.315 265.6ZM109.455 264.34C110.229 264.34 110.915 264.18 111.515 263.86C112.115 263.527 112.589 263.073 112.935 262.5C113.282 261.913 113.455 261.24 113.455 260.48C113.455 259.72 113.282 259.053 112.935 258.48C112.589 257.907 112.115 257.46 111.515 257.14C110.915 256.807 110.229 256.64 109.455 256.64C108.695 256.64 108.009 256.807 107.395 257.14C106.795 257.46 106.322 257.907 105.975 258.48C105.642 259.053 105.475 259.72 105.475 260.48C105.475 261.24 105.642 261.913 105.975 262.5C106.322 263.073 106.795 263.527 107.395 263.86C108.009 264.18 108.695 264.34 109.455 264.34ZM123.247 266.1C122.153 266.1 121.193 265.873 120.367 265.42C119.54 264.953 118.893 264.32 118.427 263.52C117.96 262.707 117.727 261.78 117.727 260.74C117.727 259.7 117.947 258.78 118.387 257.98C118.84 257.18 119.453 256.553 120.227 256.1C121.013 255.633 121.893 255.4 122.867 255.4C123.853 255.4 124.727 255.627 125.487 256.08C126.26 256.52 126.867 257.147 127.307 257.96C127.747 258.76 127.967 259.687 127.967 260.74C127.967 260.807 127.96 260.88 127.947 260.96C127.947 261.027 127.947 261.1 127.947 261.18H118.807V260.12H127.187L126.627 260.54C126.627 259.78 126.46 259.107 126.127 258.52C125.807 257.92 125.367 257.453 124.807 257.12C124.247 256.787 123.6 256.62 122.867 256.62C122.147 256.62 121.5 256.787 120.927 257.12C120.353 257.453 119.907 257.92 119.587 258.52C119.267 259.12 119.107 259.807 119.107 260.58V260.8C119.107 261.6 119.28 262.307 119.627 262.92C119.987 263.52 120.48 263.993 121.107 264.34C121.747 264.673 122.473 264.84 123.287 264.84C123.927 264.84 124.52 264.727 125.067 264.5C125.627 264.273 126.107 263.927 126.507 263.46L127.307 264.38C126.84 264.94 126.253 265.367 125.547 265.66C124.853 265.953 124.087 266.1 123.247 266.1ZM136.091 266V255.5H137.511V266H136.091ZM136.811 253.18C136.518 253.18 136.271 253.08 136.071 252.88C135.871 252.68 135.771 252.44 135.771 252.16C135.771 251.88 135.871 251.647 136.071 251.46C136.271 251.26 136.518 251.16 136.811 251.16C137.105 251.16 137.351 251.253 137.551 251.44C137.751 251.627 137.851 251.86 137.851 252.14C137.851 252.433 137.751 252.68 137.551 252.88C137.365 253.08 137.118 253.18 136.811 253.18ZM144.282 266.1C143.416 266.1 142.596 265.98 141.822 265.74C141.049 265.487 140.442 265.173 140.002 264.8L140.642 263.68C141.069 264 141.616 264.28 142.282 264.52C142.949 264.747 143.649 264.86 144.382 264.86C145.382 264.86 146.102 264.707 146.542 264.4C146.982 264.08 147.202 263.66 147.202 263.14C147.202 262.753 147.076 262.453 146.822 262.24C146.582 262.013 146.262 261.847 145.862 261.74C145.462 261.62 145.016 261.52 144.522 261.44C144.029 261.36 143.536 261.267 143.042 261.16C142.562 261.053 142.122 260.9 141.722 260.7C141.322 260.487 140.996 260.2 140.742 259.84C140.502 259.48 140.382 259 140.382 258.4C140.382 257.827 140.542 257.313 140.862 256.86C141.182 256.407 141.649 256.053 142.262 255.8C142.889 255.533 143.649 255.4 144.542 255.4C145.222 255.4 145.902 255.493 146.582 255.68C147.262 255.853 147.822 256.087 148.262 256.38L147.642 257.52C147.176 257.2 146.676 256.973 146.142 256.84C145.609 256.693 145.076 256.62 144.542 256.62C143.596 256.62 142.896 256.787 142.442 257.12C142.002 257.44 141.782 257.853 141.782 258.36C141.782 258.76 141.902 259.073 142.142 259.3C142.396 259.527 142.722 259.707 143.122 259.84C143.536 259.96 143.982 260.06 144.462 260.14C144.956 260.22 145.442 260.32 145.922 260.44C146.416 260.547 146.862 260.7 147.262 260.9C147.676 261.087 148.002 261.36 148.242 261.72C148.496 262.067 148.622 262.527 148.622 263.1C148.622 263.713 148.449 264.247 148.102 264.7C147.769 265.14 147.276 265.487 146.622 265.74C145.982 265.98 145.202 266.1 144.282 266.1ZM156.462 266V251.16H157.882V266H156.462ZM166.114 266.1C165.1 266.1 164.187 265.873 163.374 265.42C162.574 264.953 161.94 264.32 161.474 263.52C161.007 262.707 160.774 261.78 160.774 260.74C160.774 259.687 161.007 258.76 161.474 257.96C161.94 257.16 162.574 256.533 163.374 256.08C164.174 255.627 165.087 255.4 166.114 255.4C167.154 255.4 168.074 255.627 168.874 256.08C169.687 256.533 170.32 257.16 170.774 257.96C171.24 258.76 171.474 259.687 171.474 260.74C171.474 261.78 171.24 262.707 170.774 263.52C170.32 264.32 169.687 264.953 168.874 265.42C168.06 265.873 167.14 266.1 166.114 266.1ZM166.114 264.84C166.874 264.84 167.547 264.673 168.134 264.34C168.72 263.993 169.18 263.513 169.514 262.9C169.86 262.273 170.034 261.553 170.034 260.74C170.034 259.913 169.86 259.193 169.514 258.58C169.18 257.967 168.72 257.493 168.134 257.16C167.547 256.813 166.88 256.64 166.134 256.64C165.387 256.64 164.72 256.813 164.134 257.16C163.547 257.493 163.08 257.967 162.734 258.58C162.387 259.193 162.214 259.913 162.214 260.74C162.214 261.553 162.387 262.273 162.734 262.9C163.08 263.513 163.547 263.993 164.134 264.34C164.72 264.673 165.38 264.84 166.114 264.84ZM180.894 266V263.68L180.834 263.3V259.42C180.834 258.527 180.581 257.84 180.074 257.36C179.581 256.88 178.841 256.64 177.854 256.64C177.174 256.64 176.527 256.753 175.914 256.98C175.301 257.207 174.781 257.507 174.354 257.88L173.714 256.82C174.247 256.367 174.887 256.02 175.634 255.78C176.381 255.527 177.167 255.4 177.994 255.4C179.354 255.4 180.401 255.74 181.134 256.42C181.881 257.087 182.254 258.107 182.254 259.48V266H180.894ZM177.274 266.1C176.487 266.1 175.801 265.973 175.214 265.72C174.641 265.453 174.201 265.093 173.894 264.64C173.587 264.173 173.434 263.64 173.434 263.04C173.434 262.493 173.561 262 173.814 261.56C174.081 261.107 174.507 260.747 175.094 260.48C175.694 260.2 176.494 260.06 177.494 260.06H181.114V261.12H177.534C176.521 261.12 175.814 261.3 175.414 261.66C175.027 262.02 174.834 262.467 174.834 263C174.834 263.6 175.067 264.08 175.534 264.44C176.001 264.8 176.654 264.98 177.494 264.98C178.294 264.98 178.981 264.8 179.554 264.44C180.141 264.067 180.567 263.533 180.834 262.84L181.154 263.82C180.887 264.513 180.421 265.067 179.754 265.48C179.101 265.893 178.274 266.1 177.274 266.1ZM190.291 266.1C189.291 266.1 188.391 265.873 187.591 265.42C186.804 264.967 186.184 264.34 185.731 263.54C185.278 262.727 185.051 261.793 185.051 260.74C185.051 259.673 185.278 258.74 185.731 257.94C186.184 257.14 186.804 256.52 187.591 256.08C188.391 255.627 189.291 255.4 190.291 255.4C191.211 255.4 192.031 255.607 192.751 256.02C193.484 256.433 194.064 257.04 194.491 257.84C194.931 258.627 195.151 259.593 195.151 260.74C195.151 261.873 194.938 262.84 194.511 263.64C194.084 264.44 193.504 265.053 192.771 265.48C192.051 265.893 191.224 266.1 190.291 266.1ZM190.391 264.84C191.138 264.84 191.804 264.673 192.391 264.34C192.991 263.993 193.458 263.513 193.791 262.9C194.138 262.273 194.311 261.553 194.311 260.74C194.311 259.913 194.138 259.193 193.791 258.58C193.458 257.967 192.991 257.493 192.391 257.16C191.804 256.813 191.138 256.64 190.391 256.64C189.658 256.64 188.998 256.813 188.411 257.16C187.824 257.493 187.358 257.967 187.011 258.58C186.664 259.193 186.491 259.913 186.491 260.74C186.491 261.553 186.664 262.273 187.011 262.9C187.358 263.513 187.824 263.993 188.411 264.34C188.998 264.673 189.658 264.84 190.391 264.84ZM194.351 266V262.84L194.491 260.72L194.291 258.6V251.16H195.711V266H194.351ZM199.666 266V255.5H201.086V266H199.666ZM200.386 253.18C200.092 253.18 199.846 253.08 199.646 252.88C199.446 252.68 199.346 252.44 199.346 252.16C199.346 251.88 199.446 251.647 199.646 251.46C199.846 251.26 200.092 251.16 200.386 251.16C200.679 251.16 200.926 251.253 201.126 251.44C201.326 251.627 201.426 251.86 201.426 252.14C201.426 252.433 201.326 252.68 201.126 252.88C200.939 253.08 200.692 253.18 200.386 253.18ZM210.397 255.4C211.25 255.4 211.997 255.567 212.637 255.9C213.29 256.22 213.797 256.713 214.157 257.38C214.53 258.047 214.717 258.887 214.717 259.9V266H213.297V260.04C213.297 258.933 213.017 258.1 212.457 257.54C211.91 256.967 211.137 256.68 210.137 256.68C209.39 256.68 208.737 256.833 208.177 257.14C207.63 257.433 207.203 257.867 206.897 258.44C206.603 259 206.457 259.68 206.457 260.48V266H205.037V255.5H206.397V258.38L206.177 257.84C206.51 257.08 207.043 256.487 207.777 256.06C208.51 255.62 209.383 255.4 210.397 255.4ZM223.032 269.98C222.072 269.98 221.152 269.84 220.272 269.56C219.392 269.28 218.679 268.88 218.132 268.36L218.852 267.28C219.346 267.72 219.952 268.067 220.672 268.32C221.406 268.587 222.179 268.72 222.992 268.72C224.326 268.72 225.306 268.407 225.932 267.78C226.559 267.167 226.872 266.207 226.872 264.9V262.28L227.072 260.48L226.932 258.68V255.5H228.292V264.72C228.292 266.533 227.846 267.86 226.952 268.7C226.072 269.553 224.766 269.98 223.032 269.98ZM222.772 265.6C221.772 265.6 220.872 265.387 220.072 264.96C219.272 264.52 218.639 263.913 218.172 263.14C217.719 262.367 217.492 261.48 217.492 260.48C217.492 259.48 217.719 258.6 218.172 257.84C218.639 257.067 219.272 256.467 220.072 256.04C220.872 255.613 221.772 255.4 222.772 255.4C223.706 255.4 224.546 255.593 225.292 255.98C226.039 256.367 226.632 256.94 227.072 257.7C227.512 258.46 227.732 259.387 227.732 260.48C227.732 261.573 227.512 262.5 227.072 263.26C226.632 264.02 226.039 264.6 225.292 265C224.546 265.4 223.706 265.6 222.772 265.6ZM222.912 264.34C223.686 264.34 224.372 264.18 224.972 263.86C225.572 263.527 226.046 263.073 226.392 262.5C226.739 261.913 226.912 261.24 226.912 260.48C226.912 259.72 226.739 259.053 226.392 258.48C226.046 257.907 225.572 257.46 224.972 257.14C224.372 256.807 223.686 256.64 222.912 256.64C222.152 256.64 221.466 256.807 220.852 257.14C220.252 257.46 219.779 257.907 219.432 258.48C219.099 259.053 218.932 259.72 218.932 260.48C218.932 261.24 219.099 261.913 219.432 262.5C219.779 263.073 220.252 263.527 220.852 263.86C221.466 264.18 222.152 264.34 222.912 264.34Z" fill="white"/>
<defs>
<clipPath id="clip0_234_49">
<rect width="225" height="196" fill="white" transform="translate(30 38)"/>
</clipPath>
</defs>
</svg>
